<svg xmlns="http://www.w3.org/2000/svg" version="1.1" xmlns:xlink="http://www.w3.org/1999/xlink" xmlns:svgjs="http://svgjs.com/svgjs" width="1440" height="560" preserveAspectRatio="none" viewBox="0 0 1440 560"><g mask="url(&quot;#SvgjsMask1119&quot;)" fill="none"><rect width="1440" height="560" x="0" y="0" fill="rgba(243, 243, 245, 1)"></rect><path d="M1512 560L0 560 L0 329.1Q59.86 316.96, 72 376.82Q140.86 373.68, 144 442.54Q198.21 376.75, 264 430.96Q279.05 374.01, 336 389.06Q361.51 342.57, 408 368.08Q421.9 309.98, 480 323.88Q532.15 256.03, 600 308.18Q699.45 287.63, 720 387.07Q792.21 387.28, 792 459.5Q754.58 350.08, 864 312.66Q1001.41 330.08, 984 467.49Q973.76 385.25, 1056 375.02Q1076.44 323.46, 1128 343.9Q1150.64 294.54, 1200 317.19Q1287.17 284.36, 1320 371.53Q1378.14 357.67, 1392 415.82Q1473.47 377.29, 1512 458.76z" fill="rgba(87, 131, 219, 1)"></path><path d="M1512 560L0 560 L0 586.82Q70.06 536.88, 120 606.95Q136.05 551, 192 567.05Q213.76 516.81, 264 538.57Q277.18 431.75, 384 444.93Q426.95 415.88, 456 458.84Q532.82 463.66, 528 540.48Q606.99 499.47, 648 578.46Q658.63 517.1, 720 527.73Q791.96 479.69, 840 551.66Q900.61 540.26, 912 600.87Q952.48 521.35, 1032 561.83Q1017.69 475.52, 1104 461.21Q1131.5 416.7, 1176 444.2Q1236.16 432.36, 1248 492.52Q1310.13 482.65, 1320 544.78Q1407.91 512.69, 1440 600.6Q1454.75 543.35, 1512 558.1z" fill="rgba(177, 194, 221, 1)"></path></g><defs><mask id="SvgjsMask1119"><rect width="1440" height="560" fill="#ffffff"></rect></mask></defs></svg>